<?xml version="1.0" encoding="utf-8"?>
<!-- Generator: Adobe Illustrator 22.1.0, SVG Export Plug-In . SVG Version: 6.00 Build 0)  -->
<svg version="1.1" id="Layer_1" xmlns="http://www.w3.org/2000/svg" xmlns:xlink="http://www.w3.org/1999/xlink" x="0px" y="0px"
	 viewBox="0 0 512 512" style="enable-background:new 0 0 512 512;" xml:space="preserve">
<style type="text/css">
	.st0{clip-path:url(#SVGID_2_);fill:#EB7346;}
	.st1{clip-path:url(#SVGID_4_);fill:#EB7346;}
	.st2{clip-path:url(#SVGID_6_);fill:#EB7346;}
	.st3{clip-path:url(#SVGID_8_);fill:#EB7346;}
	.st4{clip-path:url(#SVGID_10_);fill:#EB7346;}
	.st5{clip-path:url(#SVGID_12_);fill:#EB7346;}
</style>
<g>
	<defs>
		<rect id="SVGID_1_" width="512" height="512"/>
	</defs>
	<clipPath id="SVGID_2_">
		<use xlink:href="#SVGID_1_"  style="overflow:visible;"/>
	</clipPath>
	<path class="st0" d="M92.1,157.5c-2.6,0-4.9,2.2-4.9,4.9v62.5c0,2.7,2.2,4.9,4.9,4.9h328.1c2.7,0,4.9-2.2,4.9-4.9v-62.5
		c0-2.6-2.2-4.9-4.9-4.9L92.1,157.5L92.1,157.5z M420.2,245.8H92.1c-11.5,0-20.9-9.4-20.9-20.9v-62.5c0-11.5,9.4-20.9,20.9-20.9
		h328.1c11.5,0,20.9,9.4,20.9,20.9v62.5C441.1,236.4,431.7,245.8,420.2,245.8z"/>
</g>
<g>
	<defs>
		<rect id="SVGID_3_" width="512" height="512"/>
	</defs>
	<clipPath id="SVGID_4_">
		<use xlink:href="#SVGID_3_"  style="overflow:visible;"/>
	</clipPath>
	<path class="st1" d="M374.4,460H137.8c-22.2,0-40.2-18-40.2-40.2V237.8c0-4.4,3.6-8,8-8s8,3.6,8,8v182.1
		c0,13.3,10.9,24.2,24.2,24.2h236.6c13.3,0,24.2-10.9,24.2-24.2V237.8c0-4.4,3.6-8,8-8s8,3.6,8,8v182.1
		C414.6,442,396.6,460,374.4,460z"/>
</g>
<g>
	<defs>
		<rect id="SVGID_5_" width="512" height="512"/>
	</defs>
	<clipPath id="SVGID_6_">
		<use xlink:href="#SVGID_5_"  style="overflow:visible;"/>
	</clipPath>
	<path class="st2" d="M256.1,460c-4.4,0-8-3.6-8-8V237.8c0-4.4,3.6-8,8-8c4.4,0,8,3.6,8,8V452C264.1,456.4,260.6,460,256.1,460z"/>
</g>
<g>
	<defs>
		<rect id="SVGID_7_" width="512" height="512"/>
	</defs>
	<clipPath id="SVGID_8_">
		<use xlink:href="#SVGID_7_"  style="overflow:visible;"/>
	</clipPath>
	<path class="st3" d="M156.3,157.4c-25-13.6-34.4-45-20.8-70c13.5-25,45-34.4,70-20.8c38.2,20.7,58.8,78.3,59.6,80.8l-15.1,5.3
		c-0.2-0.5-19.4-54.3-52.1-72c-17.3-9.4-39-2.9-48.3,14.4c-9.4,17.3-2.9,39,14.4,48.3L156.3,157.4z"/>
</g>
<g>
	<defs>
		<rect id="SVGID_9_" width="512" height="512"/>
	</defs>
	<clipPath id="SVGID_10_">
		<use xlink:href="#SVGID_9_"  style="overflow:visible;"/>
	</clipPath>
	<path class="st4" d="M356,157.4l-7.6-14.1c8.4-4.5,14.5-12.1,17.2-21.2c2.7-9.1,1.7-18.8-2.8-27.1c-4.5-8.4-12-14.5-21.2-17.2
		c-9.1-2.7-18.8-1.7-27.1,2.8c-32.7,17.7-52,71.5-52.1,72l-15.1-5.3c0.9-2.4,21.5-60.1,59.6-80.8c12.1-6.6,26.1-8,39.3-4.1
		c13.2,3.9,24.1,12.8,30.7,24.9c6.6,12.1,8,26.1,4.1,39.3C377,140,368.1,150.9,356,157.4z"/>
</g>
<g>
	<defs>
		<rect id="SVGID_11_" width="512" height="512"/>
	</defs>
	<clipPath id="SVGID_12_">
		<use xlink:href="#SVGID_11_"  style="overflow:visible;"/>
	</clipPath>
	<path class="st5" d="M406.6,352.9h-301c-4.4,0-8-3.6-8-8s3.6-8,8-8h301c4.4,0,8,3.6,8,8S411.1,352.9,406.6,352.9z"/>
</g>
</svg>
