<?xml version="1.0" encoding="iso-8859-1"?>
<!DOCTYPE svg PUBLIC "-//W3C//DTD SVG 1.1//EN" "http://www.w3.org/Graphics/SVG/1.1/DTD/svg11.dtd">
<svg 
 version="1.1" xmlns="http://www.w3.org/2000/svg" xmlns:xlink="http://www.w3.org/1999/xlink" x="0px" y="0px" width="512px"
	 height="512px" viewBox="0 0 512 512" style="enable-background:new 0 0 512 512;" xml:space="preserve"
><g id="7935ec95c421cee6d86eb22ecd1555b4"><g></g><g><path style="display: inline;" d="M198.44,151.911l86.394,84.427L198.44,320.77v-49.089h-56.29c0,0-34.022-1.981-52.494,40.27
		c-13.677,31.309,21.077,67.068,21.077,67.068s-22.674-7.906-36.905-29.302c-20.301-30.522-16.76-61.672-16.76-61.672
		s-1.261-28.625,22.208-56.863c27.313-32.866,62.873-30.186,62.873-30.186h56.29V151.911z M454.865,141.498
		c-0.682-2.694-2.588-5.755-5.833-9.001L323.171,6.636c-3.833-3.829-7.404-5.792-10.42-6.069V0.5H76.648
		c-10.409,0-18.926,8.517-18.926,18.925v113.556h37.852v-94.63H303.76v86.11c0,15.092,12.351,27.446,27.447,27.446h86.109v321.741
		H95.574v-37.852H57.723v56.777c0,10.409,8.517,18.926,18.926,18.926h359.594c10.409,0,18.927-8.517,18.927-18.926V141.498H454.865z
		"></path></g></g></svg>